<?xml version="1.0" encoding="utf-8"?>
<!-- Generator: Adobe Illustrator 28.1.0, SVG Export Plug-In . SVG Version: 6.00 Build 0)  -->
<svg version="1.1" id="Layer_1" xmlns="http://www.w3.org/2000/svg" xmlns:xlink="http://www.w3.org/1999/xlink" x="0px" y="0px"
	 viewBox="0 0 57 20" style="enable-background:new 0 0 57 20;" xml:space="preserve">
<style type="text/css">
	.st0{fill-rule:evenodd;clip-rule:evenodd;fill:#FFFFFF;}
</style>
<path class="st0" d="M23.1,15.8V4.2c0,0,0-0.1,0.1-0.1h2.4c0,0,0.1,0,0.1,0.1v11.5c0,0,0,0.1-0.1,0.1L23.1,15.8
	C23.1,15.8,23.1,15.8,23.1,15.8z"/>
<path class="st0" d="M10.2,4.2h-3h0H4.7h0h-3c0,0-0.1,0-0.1,0.1v2.2c0,0,0,0.1,0.1,0.1h3c0,0,0,0,0,0v9.2c0,0,0,0.1,0.1,0.1h2.4
	c0,0,0.1,0,0.1-0.1V6.5c0,0,0,0,0,0h3c0,0,0.1,0,0.1-0.1L10.2,4.2C10.3,4.2,10.3,4.2,10.2,4.2z"/>
<path class="st0" d="M41,13.5V4.2c0,0,0-0.1-0.1-0.1h-2.4c0,0-0.1,0-0.1,0.1v9.3V14c0,1,0.8,1.9,1.9,1.9H41h4.8c0,0,0.1,0,0.1-0.1
	v-2.2c0,0,0-0.1-0.1-0.1L41,13.5C41,13.5,41,13.5,41,13.5z"/>
<path class="st0" d="M50,13.5v-2.3c0,0,0,0,0,0h4.4c0,0,0.1,0,0.1-0.1V8.9c0,0,0-0.1-0.1-0.1H50c0,0,0,0,0,0V6.5c0,0,0,0,0,0h4.8
	c0,0,0.1,0,0.1-0.1V4.2c0,0,0-0.1-0.1-0.1H50h-2.4c0,0-0.1,0-0.1,0.1v2.3v2.3v2.3v2.3V14c0,1,0.8,1.9,1.9,1.9H50h5
	c0,0,0.1,0,0.1-0.1v-2.2c0,0,0-0.1-0.1-0.1L50,13.5C50,13.5,50,13.5,50,13.5z"/>
<path class="st0" d="M17.6,8.3c0,0.6-0.5,1.1-1.1,1.1h-1.6c0,0,0,0,0,0V6.5c0,0,0,0,0,0h1.6c0.6,0,1.1,0.5,1.1,1.1V8.3z M21,15.7
	l-2.3-4.6c0,0,0,0,0,0c0.8-0.6,1.4-1.6,1.4-2.7V7.5c0-1.8-1.5-3.3-3.4-3.3h-1.9h-2.4c0,0-0.1,0-0.1,0.1v7.5v4c0,0,0,0.1,0.1,0.1h2.4
	c0,0,0.1,0,0.1-0.1v-4c0,0,0,0,0,0h1.4c0,0,0,0,0.1,0l1.7,4c0,0,0,0.1,0.1,0.1L21,15.7C21,15.8,21.1,15.8,21,15.7z"/>
<path class="st0" d="M33.7,8.5c0,0.6-0.5,1.1-1.1,1.1H31c0,0,0,0,0,0V6.5c0,0,0,0,0,0h1.6c0.6,0,1.1,0.5,1.1,1.1V8.5z M32.9,4.2H31
	h-2.4c0,0-0.1,0-0.1,0.1V12v3.8c0,0,0,0.1,0.1,0.1h2.4c0,0,0.1,0,0.1-0.1V12c0,0,0,0,0,0h1.9c1.9,0,3.4-1.5,3.4-3.3V7.5
	C36.2,5.7,34.7,4.2,32.9,4.2z"/>
</svg>
